<?xml version="1.0" standalone="no"?>
<!DOCTYPE svg PUBLIC "-//W3C//DTD SVG 1.1//EN" "http://www.w3.org/Graphics/SVG/1.1/DTD/svg11.dtd">
<svg width="100%" height="100%" viewBox="0 0 2000 2000" version="1.1" xmlns="http://www.w3.org/2000/svg" xmlns:xlink="http://www.w3.org/1999/xlink" xml:space="preserve" style="fill-rule:evenodd;clip-rule:evenodd;stroke-linecap:round;stroke-linejoin:round;stroke-miterlimit:1.41421;">
    <path d="M2000,1000C2000,447.715 1552.29,0 1000,0C1000,0 1000,0 1000,0C447.715,0 0,447.715 0,1000C0,1000 0,1000 0,1000C0,1552.29 447.715,2000 1000,2000C1000,2000 1000,2000 1000,2000C1552.29,2000 2000,1552.29 2000,1000C2000,1000 2000,1000 2000,1000Z" style="fill:rgb(104,187,2);"/>
    <circle cx="1000" cy="1000" r="856.008" style="fill:none;stroke-width:20px;stroke:white;"/>
    <g>
        <g transform="matrix(1,0,0,1,-69.0524,24.932)">
            <path d="M765.858,1497.66C823.279,1382.82 940.656,1310.28 1069.05,1310.28C1197.45,1310.28 1314.83,1382.82 1372.25,1497.66C1377.28,1507.74 1380.07,1513.3 1380.07,1513.3L758.039,1513.3C758.039,1513.3 760.821,1507.74 765.858,1497.66Z" style="fill:none;stroke-width:20px;stroke:white;"/>
        </g>
        <g transform="matrix(-0.473003,2.67982e-16,-3.20883e-16,-0.566376,1859.87,1940.86)">
            <path d="M765.858,1497.66C823.279,1382.82 940.656,1310.28 1069.05,1310.28C1197.45,1310.28 1314.83,1382.82 1372.25,1497.66C1377.28,1507.74 1380.07,1513.3 1380.07,1513.3L758.039,1513.3C758.039,1513.3 760.821,1507.74 765.858,1497.66Z" style="fill:none;stroke-width:38.33px;stroke:white;"/>
        </g>
        <g transform="matrix(1,0,0,1,5.80296e-07,54.6562)">
            <path d="M1000,1280.55L1000,558.672" style="fill:none;stroke-width:20px;stroke:white;"/>
        </g>
        <g transform="matrix(1,0,0,1,5.80296e-07,54.6562)">
            <path d="M1000,816.003C1000,816.003 999.796,558.672 1241.74,558.672C1439.26,558.672 1431.33,695.071 1431.33,695.071C1431.33,695.071 1434.77,785.992 1354.36,785.992C1273.95,785.992 1274.28,695.813 1274.28,695.813" style="fill:none;stroke-width:20px;stroke:white;"/>
        </g>
        <g transform="matrix(1,0,0,1,1.85671,54.7868)">
            <path d="M1352.35,787.291L1352.35,1028.98" style="fill:none;stroke-width:20px;stroke:white;"/>
        </g>
        <g transform="matrix(0.965926,-0.258819,0.258819,0.965926,-155.829,435.744)">
            <path d="M1352.35,787.291L1352.35,1028.98" style="fill:none;stroke-width:20px;stroke:white;"/>
        </g>
        <g transform="matrix(-0.965926,-0.258819,-0.258819,0.965926,2864.23,435.744)">
            <path d="M1352.35,787.291L1352.35,1028.98" style="fill:none;stroke-width:20px;stroke:white;"/>
        </g>
        <g transform="matrix(0.473003,2.67982e-16,3.20883e-16,-0.566376,140.133,1940.86)">
            <path d="M765.858,1497.66C823.279,1382.82 940.656,1310.28 1069.05,1310.28C1197.45,1310.28 1314.83,1382.82 1372.25,1497.66C1377.28,1507.74 1380.07,1513.3 1380.07,1513.3L758.039,1513.3C758.039,1513.3 760.821,1507.74 765.858,1497.66Z" style="fill:none;stroke-width:38.33px;stroke:white;"/>
        </g>
        <g transform="matrix(-1,0,0,1,2000,54.6562)">
            <path d="M1000,816.003C1000,816.003 999.796,558.672 1241.74,558.672C1439.26,558.672 1431.33,695.071 1431.33,695.071C1431.33,695.071 1434.77,785.992 1354.36,785.992C1273.95,785.992 1274.28,695.813 1274.28,695.813" style="fill:none;stroke-width:20px;stroke:white;"/>
        </g>
        <g transform="matrix(-1,0,0,1,1998.14,54.7868)">
            <path d="M1352.35,787.291L1352.35,1028.98" style="fill:none;stroke-width:20px;stroke:white;"/>
        </g>
        <g transform="matrix(-0.965926,-0.258819,-0.258819,0.965926,2155.83,435.744)">
            <path d="M1352.35,787.291L1352.35,1028.98" style="fill:none;stroke-width:20px;stroke:white;"/>
        </g>
        <g transform="matrix(0.965926,-0.258819,0.258819,0.965926,-864.234,435.744)">
            <path d="M1352.35,787.291L1352.35,1028.98" style="fill:none;stroke-width:20px;stroke:white;"/>
        </g>
        <g transform="matrix(0.707107,-0.707107,0.707107,0.707107,-102.148,951.302)">
            <path d="M1125.49,433.185C1125.49,433.185 1093.73,433.185 1062.17,433.185C1045.68,433.185 1029.87,439.734 1018.21,451.393C1006.55,463.051 1000,478.864 1000,495.351C1000,495.736 1000,496.121 1000,496.506C1000,512.993 1006.55,528.806 1018.21,540.464C1029.87,552.123 1045.68,558.672 1062.17,558.672C1062.55,558.672 1062.94,558.672 1063.32,558.672C1079.81,558.672 1095.62,552.123 1107.28,540.464C1118.94,528.806 1125.49,512.993 1125.49,496.506C1125.49,464.943 1125.49,433.185 1125.49,433.185Z" style="fill:none;stroke-width:20px;stroke:white;"/>
        </g>
    </g>
</svg>
