<?xml version="1.0" standalone="no"?>
<!DOCTYPE svg PUBLIC "-//W3C//DTD SVG 1.1//EN" "http://www.w3.org/Graphics/SVG/1.1/DTD/svg11.dtd">
<svg width="100%" height="100%" viewBox="0 0 261 72" version="1.1" xmlns="http://www.w3.org/2000/svg" xmlns:xlink="http://www.w3.org/1999/xlink" xml:space="preserve" style="fill-rule:evenodd;clip-rule:evenodd;stroke-linejoin:round;stroke-miterlimit:1.41421;">
    <g transform="matrix(1,0,0,1,-49.1837,-149.024)">
        <g transform="matrix(4.96607,0,0,4.96607,-461.092,-845.751)">
            <text x="102.368px" y="209.738px" style="font-family:'Dosis-ExtraLight';font-size:12px;fill:white;">g<tspan x="107.6px 112.556px 121.64px 126.86px 129.14px 134.48px 137.828px " y="209.738px 209.738px 209.738px 209.738px 209.738px 209.738px 209.738px ">ame off</tspan></text>
        </g>
        <g transform="matrix(1.48577,0,0,1.48577,90.071,-95.0669)">
            <text x="-7.348px" y="209.738px" style="font-family:'Dosis-Regular';font-size:12px;fill:white;">a<tspan x="-2.212px 0.068px 4.568px 9.38px 13.232px 18.368px 21.812px 26.624px 32.456px 37.292px 42.98px 48.116px 52.616px 57.992px 63.68px 65.96px 71.264px 76.4px 85.64px 91.016px 93.296px 98.108px 103.604px 112.844px 118.532px 123.908px 127.352px 129.524px 132.968px 135.14px 140.636px " y="209.738px 209.738px 209.738px 209.738px 209.738px 209.738px 209.738px 209.738px 209.738px 209.738px 209.738px 209.738px 209.738px 209.738px 209.738px 209.738px 209.738px 209.738px 209.738px 209.738px 209.738px 209.738px 209.738px 209.738px 209.738px 209.738px 209.738px 209.738px 209.738px 209.738px 209.738px "> scratch-based game competition</tspan></text>
        </g>
        <path d="M294.474,168.356L294.474,168.356C301.776,168.403 307.689,174.346 307.689,181.659C307.689,189.001 301.728,194.962 294.386,194.962C289.48,194.962 285.191,192.302 282.885,188.346L278.313,188.346C276.006,192.302 271.718,194.962 266.812,194.962C259.47,194.962 253.509,189.001 253.509,181.659C253.509,174.317 259.47,168.356 266.812,168.356L294.474,168.356Z" style="fill:rgb(104,187,2);stroke-width:2px;stroke:white;"/>
        <g transform="matrix(1.23702,0,0,1.23702,-68.5778,-40.814)">
            <circle cx="291.696" cy="180" r="1.659" style="fill:white;"/>
        </g>
        <g transform="matrix(1.17967,0,0,1.17967,-46.2204,-30.3841)">
            <circle cx="291.696" cy="180" r="1.659" style="fill:white;"/>
        </g>
        <g transform="matrix(1,0,0,1,-27.8806,0.863641)">
            <path d="M289.628,180.792C289.628,180.369 289.796,179.964 290.095,179.665C290.394,179.366 290.799,179.198 291.222,179.198C292.065,179.198 292.927,179.198 292.927,179.198C292.927,179.198 292.927,178.336 292.927,177.493C292.927,177.07 293.095,176.664 293.394,176.365C293.693,176.066 294.099,175.898 294.522,175.898C294.524,175.898 294.526,175.898 294.528,175.898C294.951,175.898 295.357,176.066 295.656,176.365C295.955,176.664 296.123,177.07 296.123,177.493C296.123,178.336 296.123,179.198 296.123,179.198C296.123,179.198 296.985,179.198 297.828,179.198C298.251,179.198 298.656,179.366 298.955,179.665C299.254,179.964 299.422,180.369 299.422,180.792C299.422,180.794 299.422,180.797 299.422,180.799C299.422,181.222 299.254,181.627 298.955,181.926C298.656,182.225 298.251,182.393 297.828,182.393C296.985,182.393 296.123,182.393 296.123,182.393C296.123,182.393 296.123,183.255 296.123,184.098C296.123,184.521 295.955,184.927 295.656,185.226C295.357,185.525 294.951,185.693 294.528,185.693C294.526,185.693 294.524,185.693 294.522,185.693C294.099,185.693 293.693,185.525 293.394,185.226C293.095,184.927 292.927,184.521 292.927,184.098C292.927,183.255 292.927,182.393 292.927,182.393C292.927,182.393 292.065,182.393 291.222,182.393C290.799,182.393 290.394,182.225 290.095,181.926C289.796,181.627 289.628,181.222 289.628,180.799C289.628,180.797 289.628,180.794 289.628,180.792Z" style="fill:white;"/>
        </g>
        <g transform="matrix(1,0,0,1,1.00668,-1.98775)">
            <path d="M276.335,183.837L277.838,183.837" style="fill:none;stroke-width:2px;stroke-linecap:round;stroke:white;"/>
        </g>
        <g transform="matrix(1,0,0,1,6.01833,-1.98775)">
            <path d="M276.335,183.837L277.838,183.837" style="fill:none;stroke-width:2px;stroke-linecap:round;stroke:white;"/>
        </g>
        <g transform="matrix(0.104536,0,0,0.104536,251.266,150.756)">
            <path d="M280.599,168.356L280.599,0" style="fill:none;stroke-width:19.13px;stroke-linecap:round;stroke:white;"/>
        </g>
    </g>
</svg>
