<?xml version="1.0" standalone="no"?>
<!DOCTYPE svg PUBLIC "-//W3C//DTD SVG 1.1//EN" "http://www.w3.org/Graphics/SVG/1.1/DTD/svg11.dtd">
<svg width="100%" height="100%" viewBox="0 0 382 106" version="1.1" xmlns="http://www.w3.org/2000/svg" xmlns:xlink="http://www.w3.org/1999/xlink" xml:space="preserve" style="fill-rule:evenodd;clip-rule:evenodd;stroke-linejoin:round;stroke-miterlimit:1.41421;">
    <g transform="matrix(1,0,0,1,-51.324,-126.43)">
        <g transform="matrix(7.76125,0,0,7.61251,-746.163,-1397.5)">
            <path d="M106.532,206.51C106.532,207.41 105.956,208.082 105.02,208.082C104.06,208.082 103.496,207.398 103.496,206.498L103.496,205.97C103.496,205.094 104.048,204.422 105.008,204.422C105.968,204.422 106.532,205.094 106.532,205.97L106.532,206.51ZM106.904,210.974C106.904,211.718 106.268,212.198 105.08,212.198C103.868,212.198 103.172,211.706 103.172,210.998C103.172,210.326 103.796,210.002 104.432,209.822C105.2,209.93 106.904,209.834 106.904,210.974ZM107.372,204.314C107.48,204.314 107.588,204.23 107.588,204.086C107.588,203.966 107.516,203.846 107.336,203.846C107.036,203.846 106.652,204.17 106.436,204.578C106.088,204.218 105.596,204.002 105.008,204.002C103.844,204.002 103.076,204.818 103.076,205.97L103.076,206.51C103.076,207.134 103.304,207.674 103.7,208.022C103.34,208.19 103.112,208.406 103.112,208.85C103.112,209.366 103.412,209.582 103.844,209.702C103.304,209.894 102.752,210.302 102.752,211.034C102.752,211.982 103.688,212.582 105.08,212.582C106.46,212.582 107.324,211.994 107.324,210.962C107.324,208.802 103.532,210.038 103.532,208.826C103.532,208.514 103.772,208.358 104.012,208.25C104.3,208.418 104.636,208.502 104.996,208.502C106.148,208.502 106.952,207.65 106.952,206.51L106.952,205.97C106.952,205.562 106.856,205.154 106.652,204.866C106.88,204.422 107.168,204.314 107.372,204.314Z" style="fill:white;fill-rule:nonzero;"/>
            <path d="M109.928,204.002C109.196,204.002 108.44,204.278 108.44,204.506C108.44,204.59 108.524,204.746 108.656,204.746C108.8,204.746 109.16,204.422 109.904,204.422C111.044,204.422 111.488,205.406 111.488,206.306L111.488,206.642L110.816,206.642C109.148,206.642 108.02,206.954 108.02,208.226C108.02,209.306 108.752,209.81 109.688,209.81C110.48,209.81 111.08,209.366 111.488,208.898L111.488,209.522C111.488,209.642 111.584,209.738 111.704,209.738C111.824,209.738 111.908,209.642 111.908,209.522L111.908,206.306C111.908,205.118 111.404,204.002 109.928,204.002ZM111.488,208.07C111.488,208.586 110.576,209.39 109.676,209.39C108.98,209.39 108.44,209.03 108.44,208.226C108.44,207.182 109.592,207.062 110.828,207.062L111.488,207.062L111.488,208.07Z" style="fill:white;fill-rule:nonzero;"/>
            <path d="M116.972,209.534C116.972,209.678 117.08,209.738 117.176,209.738C117.284,209.738 117.392,209.678 117.392,209.534L117.392,206.09C117.392,205.094 118.208,204.422 119.012,204.422C119.756,204.422 120.572,205.01 120.572,206.162L120.572,209.522C120.572,209.63 120.668,209.738 120.776,209.738C120.896,209.738 120.992,209.63 120.992,209.522L120.992,206.162C120.992,204.782 120.032,204.002 119.024,204.002C118.328,204.002 117.62,204.386 117.2,205.202C116.888,204.494 116.228,204.002 115.4,204.002C114.596,204.002 114.056,204.446 113.792,204.914L113.792,204.278C113.792,204.158 113.696,204.074 113.576,204.074C113.456,204.074 113.372,204.158 113.372,204.278L113.372,209.522C113.372,209.63 113.456,209.738 113.576,209.738C113.696,209.738 113.792,209.63 113.792,209.522L113.792,206.162C113.792,205.07 114.62,204.422 115.424,204.422C116.276,204.422 116.972,205.154 116.972,206.102L116.972,209.534Z" style="fill:white;fill-rule:nonzero;"/>
            <path d="M124.388,204.002C123.224,204.002 122.252,204.974 122.252,206.126L122.252,207.626C122.252,208.934 123.26,209.81 124.676,209.81C125.708,209.81 126.332,209.342 126.332,209.114C126.332,209.018 126.224,208.898 126.116,208.898C125.888,208.898 125.708,209.39 124.7,209.39C123.524,209.39 122.672,208.718 122.672,207.626L122.672,207.062L125.516,207.062C126.032,207.062 126.512,207.038 126.512,206.162C126.512,204.914 125.516,204.002 124.388,204.002ZM122.672,206.642L122.672,206.126C122.672,205.226 123.416,204.422 124.388,204.422C125.42,204.422 126.092,205.334 126.092,206.198C126.092,206.57 125.96,206.642 125.372,206.642L122.672,206.642Z" style="fill:white;fill-rule:nonzero;"/>
            <path d="M129.716,203.978C128.42,203.978 127.352,205.058 127.352,206.282L127.352,207.506C127.352,208.73 128.444,209.834 129.716,209.834C130.988,209.834 132.092,208.718 132.092,207.506L132.092,206.282C132.092,205.022 130.988,203.978 129.716,203.978ZM131.096,207.506C131.096,208.238 130.472,208.934 129.716,208.934C128.96,208.934 128.348,208.238 128.348,207.506L128.348,206.282C128.348,205.574 128.948,204.878 129.716,204.878C130.484,204.878 131.096,205.574 131.096,206.282L131.096,207.506Z" style="fill:white;fill-rule:nonzero;"/>
            <path d="M134.18,202.778C134.192,202.07 134.732,201.494 135.476,201.494L135.728,201.494C135.992,201.494 136.136,201.29 136.136,201.062C136.136,200.834 135.992,200.618 135.728,200.618L135.308,200.618C134.156,200.618 133.184,201.614 133.184,202.862L133.184,209.39C133.184,209.594 133.388,209.738 133.664,209.738C133.94,209.738 134.18,209.594 134.18,209.39L134.18,204.83L135.824,204.83C136.016,204.83 136.136,204.65 136.136,204.446C136.136,204.242 136.016,204.05 135.824,204.05L134.18,204.05L134.18,202.778Z" style="fill:white;fill-rule:nonzero;"/>
            <path d="M137.84,202.778C137.852,202.07 138.392,201.494 139.136,201.494L139.388,201.494C139.652,201.494 139.796,201.29 139.796,201.062C139.796,200.834 139.652,200.618 139.388,200.618L138.968,200.618C137.816,200.618 136.844,201.614 136.844,202.862L136.844,209.39C136.844,209.594 137.048,209.738 137.324,209.738C137.6,209.738 137.84,209.594 137.84,209.39L137.84,204.83L139.484,204.83C139.676,204.83 139.796,204.65 139.796,204.446C139.796,204.242 139.676,204.05 139.484,204.05L137.84,204.05L137.84,202.778Z" style="fill:white;fill-rule:nonzero;"/>
        </g>
        <g transform="matrix(2.18099,0,0,2.187,111.213,-232.863)">
            <path d="M-4.972,203.99C-5.74,203.99 -6.592,204.29 -6.592,204.602C-6.592,204.782 -6.484,205.022 -6.28,205.022C-6.088,205.022 -5.8,204.674 -4.996,204.674C-3.964,204.674 -3.58,205.538 -3.58,206.306L-3.58,206.594L-4.192,206.594C-5.86,206.594 -6.988,206.93 -6.988,208.238C-6.988,209.318 -6.268,209.822 -5.356,209.822C-4.552,209.822 -3.964,209.378 -3.544,208.898L-3.544,209.426C-3.544,209.606 -3.388,209.738 -3.184,209.738C-2.956,209.738 -2.8,209.606 -2.8,209.426L-2.8,206.306C-2.8,205.106 -3.364,203.99 -4.972,203.99ZM-3.58,207.902C-3.58,208.442 -4.396,209.162 -5.164,209.162C-5.752,209.162 -6.208,208.862 -6.208,208.166C-6.208,207.242 -5.188,207.134 -4.084,207.134L-3.58,207.134L-3.58,207.902Z" style="fill:white;fill-rule:nonzero;"/>
            <path d="M2.324,209.162C1.244,209.162 1.004,208.598 0.74,208.598C0.584,208.598 0.464,208.802 0.464,208.958C0.464,209.318 1.22,209.822 2.348,209.822C3.572,209.822 4.28,209.222 4.28,208.274C4.28,206.09 1.304,206.954 1.304,205.586C1.304,205.19 1.616,204.65 2.504,204.65C3.212,204.65 3.584,204.986 3.776,204.986C3.968,204.986 4.1,204.71 4.1,204.578C4.1,204.29 3.284,203.99 2.492,203.99C1.124,203.99 0.596,204.854 0.596,205.622C0.596,207.614 3.56,206.714 3.56,208.31C3.56,208.766 3.236,209.162 2.324,209.162Z" style="fill:white;fill-rule:nonzero;"/>
            <path d="M7.448,209.822C8.504,209.822 9.2,209.354 9.2,209.03C9.2,208.85 9.056,208.646 8.84,208.646C8.6,208.646 8.408,209.102 7.484,209.102C6.428,209.102 5.9,208.514 5.9,207.542L5.9,206.258C5.9,205.298 6.428,204.71 7.472,204.71C8.348,204.71 8.552,205.154 8.78,205.154C8.972,205.154 9.128,204.938 9.128,204.77C9.128,204.446 8.456,203.99 7.436,203.99C5.84,203.99 5.12,204.986 5.12,206.258L5.12,207.542C5.12,208.85 5.852,209.822 7.448,209.822Z" style="fill:white;fill-rule:nonzero;"/>
            <path d="M12.92,204.71C13.088,204.71 13.232,204.542 13.232,204.35C13.232,204.158 13.088,203.99 12.92,203.99L12.5,203.99C11.72,203.99 11.156,204.458 10.892,204.938L10.892,204.35C10.892,204.182 10.724,204.062 10.52,204.062C10.304,204.062 10.136,204.182 10.136,204.35L10.136,209.426C10.136,209.582 10.304,209.738 10.52,209.738C10.748,209.738 10.916,209.582 10.916,209.426L10.916,206.462C10.916,205.37 11.708,204.71 12.5,204.71L12.92,204.71Z" style="fill:white;fill-rule:nonzero;"/>
            <path d="M15.608,203.99C14.84,203.99 13.988,204.29 13.988,204.602C13.988,204.782 14.096,205.022 14.3,205.022C14.492,205.022 14.78,204.674 15.584,204.674C16.616,204.674 17,205.538 17,206.306L17,206.594L16.388,206.594C14.72,206.594 13.592,206.93 13.592,208.238C13.592,209.318 14.312,209.822 15.224,209.822C16.028,209.822 16.616,209.378 17.036,208.898L17.036,209.426C17.036,209.606 17.192,209.738 17.396,209.738C17.624,209.738 17.78,209.606 17.78,209.426L17.78,206.306C17.78,205.106 17.216,203.99 15.608,203.99ZM17,207.902C17,208.442 16.184,209.162 15.416,209.162C14.828,209.162 14.372,208.862 14.372,208.166C14.372,207.242 15.392,207.134 16.496,207.134L17,207.134L17,207.902Z" style="fill:white;fill-rule:nonzero;"/>
            <path d="M19.88,204.71L21.428,204.71C21.584,204.71 21.704,204.554 21.704,204.386C21.704,204.218 21.584,204.062 21.428,204.062L19.88,204.062L19.88,201.65C19.88,201.482 19.676,201.362 19.484,201.362C19.304,201.362 19.1,201.482 19.1,201.65L19.1,207.974C19.1,209.21 19.76,209.738 20.996,209.738L21.332,209.738C21.548,209.738 21.692,209.57 21.692,209.378C21.692,209.198 21.548,209.03 21.332,209.03L20.996,209.03C20.168,209.03 19.88,208.754 19.88,207.974L19.88,204.71Z" style="fill:white;fill-rule:nonzero;"/>
            <path d="M24.692,209.822C25.748,209.822 26.444,209.354 26.444,209.03C26.444,208.85 26.3,208.646 26.084,208.646C25.844,208.646 25.652,209.102 24.728,209.102C23.672,209.102 23.144,208.514 23.144,207.542L23.144,206.258C23.144,205.298 23.672,204.71 24.716,204.71C25.592,204.71 25.796,205.154 26.024,205.154C26.216,205.154 26.372,204.938 26.372,204.77C26.372,204.446 25.7,203.99 24.68,203.99C23.084,203.99 22.364,204.986 22.364,206.258L22.364,207.542C22.364,208.85 23.096,209.822 24.692,209.822Z" style="fill:white;fill-rule:nonzero;"/>
            <path d="M28.16,206.234C28.16,205.274 28.892,204.71 29.6,204.71C30.416,204.71 31.088,205.466 31.088,206.234L31.088,209.426C31.088,209.63 31.292,209.738 31.472,209.738C31.676,209.738 31.868,209.63 31.868,209.426L31.868,206.234C31.868,204.998 30.896,203.99 29.744,203.99C28.952,203.99 28.412,204.434 28.16,204.902L28.16,200.87C28.16,200.702 27.98,200.582 27.764,200.582C27.548,200.582 27.38,200.702 27.38,200.87L27.38,209.426C27.38,209.582 27.548,209.738 27.764,209.738C27.98,209.738 28.16,209.582 28.16,209.426L28.16,206.234Z" style="fill:white;fill-rule:nonzero;"/>
            <path d="M33.08,206.858C33.08,207.062 33.2,207.194 33.38,207.194L36.5,207.194C36.656,207.194 36.8,207.062 36.8,206.858C36.8,206.654 36.656,206.498 36.5,206.498L33.38,206.498C33.2,206.498 33.08,206.654 33.08,206.858Z" style="fill:white;fill-rule:nonzero;"/>
            <path d="M38.432,200.582C38.216,200.582 38.048,200.702 38.048,200.87L38.048,209.426C38.048,209.582 38.216,209.738 38.432,209.738C38.636,209.738 38.804,209.582 38.804,209.426L38.804,208.898C39.056,209.39 39.704,209.822 40.448,209.822C41.576,209.822 42.572,208.73 42.572,207.542L42.572,206.234C42.572,204.998 41.6,203.99 40.424,203.99C39.632,203.99 39.092,204.434 38.828,204.902L38.828,200.87C38.828,200.702 38.66,200.582 38.432,200.582ZM41.792,207.542C41.792,208.334 41.108,209.102 40.304,209.102C39.464,209.102 38.828,208.274 38.828,207.914L38.828,206.234C38.828,205.274 39.572,204.71 40.292,204.71C41.12,204.71 41.792,205.466 41.792,206.234L41.792,207.542Z" style="fill:white;fill-rule:nonzero;"/>
            <path d="M45.356,203.99C44.588,203.99 43.736,204.29 43.736,204.602C43.736,204.782 43.844,205.022 44.048,205.022C44.24,205.022 44.528,204.674 45.332,204.674C46.364,204.674 46.748,205.538 46.748,206.306L46.748,206.594L46.136,206.594C44.468,206.594 43.34,206.93 43.34,208.238C43.34,209.318 44.06,209.822 44.972,209.822C45.776,209.822 46.364,209.378 46.784,208.898L46.784,209.426C46.784,209.606 46.94,209.738 47.144,209.738C47.372,209.738 47.528,209.606 47.528,209.426L47.528,206.306C47.528,205.106 46.964,203.99 45.356,203.99ZM46.748,207.902C46.748,208.442 45.932,209.162 45.164,209.162C44.576,209.162 44.12,208.862 44.12,208.166C44.12,207.242 45.14,207.134 46.244,207.134L46.748,207.134L46.748,207.902Z" style="fill:white;fill-rule:nonzero;"/>
            <path d="M50.372,209.162C49.292,209.162 49.052,208.598 48.788,208.598C48.632,208.598 48.512,208.802 48.512,208.958C48.512,209.318 49.268,209.822 50.396,209.822C51.62,209.822 52.328,209.222 52.328,208.274C52.328,206.09 49.352,206.954 49.352,205.586C49.352,205.19 49.664,204.65 50.552,204.65C51.26,204.65 51.632,204.986 51.824,204.986C52.016,204.986 52.148,204.71 52.148,204.578C52.148,204.29 51.332,203.99 50.54,203.99C49.172,203.99 48.644,204.854 48.644,205.622C48.644,207.614 51.608,206.714 51.608,208.31C51.608,208.766 51.284,209.162 50.372,209.162Z" style="fill:white;fill-rule:nonzero;"/>
            <path d="M55.448,203.99C54.188,203.99 53.156,204.998 53.156,206.198L53.156,207.542C53.156,208.91 54.224,209.822 55.736,209.822C56.852,209.822 57.536,209.318 57.536,209.03C57.536,208.886 57.392,208.658 57.2,208.658C56.936,208.658 56.708,209.138 55.76,209.138C54.704,209.138 53.936,208.538 53.936,207.578L53.936,207.134L56.648,207.134C57.176,207.134 57.692,207.098 57.692,206.174C57.692,204.902 56.636,203.99 55.448,203.99ZM53.936,206.558L53.936,206.102C53.936,205.298 54.608,204.638 55.436,204.638C56.324,204.638 56.936,205.382 56.936,206.15C56.936,206.486 56.816,206.558 56.336,206.558L53.936,206.558Z" style="fill:white;fill-rule:nonzero;"/>
            <path d="M62.672,200.582C62.444,200.582 62.264,200.702 62.264,200.87L62.264,204.902C62.012,204.434 61.472,203.99 60.68,203.99C59.504,203.99 58.532,204.998 58.532,206.234L58.532,207.542C58.532,208.73 59.516,209.822 60.656,209.822C61.4,209.822 62.036,209.39 62.3,208.898L62.3,209.426C62.3,209.582 62.468,209.738 62.672,209.738C62.888,209.738 63.044,209.582 63.044,209.426L63.044,200.87C63.044,200.702 62.888,200.582 62.672,200.582ZM59.312,206.234C59.312,205.466 59.984,204.71 60.812,204.71C61.532,204.71 62.264,205.274 62.264,206.234L62.264,207.914C62.264,208.274 61.64,209.102 60.8,209.102C59.996,209.102 59.312,208.334 59.312,207.542L59.312,206.234Z" style="fill:white;fill-rule:nonzero;"/>
            <path d="M68.612,208.406C69.836,208.406 70.7,207.554 70.7,206.414L70.7,205.958C70.7,205.538 70.592,205.13 70.364,204.83C70.58,204.458 70.844,204.35 71.036,204.314C71.144,204.29 71.24,204.194 71.24,204.05C71.24,203.906 71.12,203.738 70.88,203.738C70.604,203.738 70.268,204.014 70.028,204.494C69.68,204.182 69.188,203.99 68.624,203.99C67.376,203.99 66.56,204.806 66.56,205.958L66.56,206.414C66.56,207.038 66.8,207.578 67.22,207.926C66.86,208.118 66.62,208.346 66.62,208.79C66.62,209.27 66.896,209.486 67.28,209.618C66.764,209.822 66.26,210.23 66.26,210.926C66.26,211.922 67.292,212.522 68.696,212.522C70.064,212.522 71.048,211.946 71.048,210.818C71.048,208.634 67.316,209.75 67.316,208.67C67.316,208.418 67.508,208.298 67.688,208.202C67.964,208.334 68.276,208.406 68.612,208.406ZM69.932,206.414C69.932,207.218 69.44,207.818 68.636,207.818C67.808,207.818 67.316,207.206 67.316,206.402L67.316,205.958C67.316,205.178 67.796,204.578 68.624,204.578C69.452,204.578 69.932,205.178 69.932,205.958L69.932,206.414ZM70.292,210.842C70.292,211.514 69.692,211.946 68.684,211.946C67.652,211.946 67.016,211.502 67.016,210.854C67.016,210.278 67.52,209.966 68.084,209.786C68.84,209.894 70.292,209.846 70.292,210.842Z" style="fill:white;fill-rule:nonzero;"/>
            <path d="M73.64,203.99C72.872,203.99 72.02,204.29 72.02,204.602C72.02,204.782 72.128,205.022 72.332,205.022C72.524,205.022 72.812,204.674 73.616,204.674C74.648,204.674 75.032,205.538 75.032,206.306L75.032,206.594L74.42,206.594C72.752,206.594 71.624,206.93 71.624,208.238C71.624,209.318 72.344,209.822 73.256,209.822C74.06,209.822 74.648,209.378 75.068,208.898L75.068,209.426C75.068,209.606 75.224,209.738 75.428,209.738C75.656,209.738 75.812,209.606 75.812,209.426L75.812,206.306C75.812,205.106 75.248,203.99 73.64,203.99ZM75.032,207.902C75.032,208.442 74.216,209.162 73.448,209.162C72.86,209.162 72.404,208.862 72.404,208.166C72.404,207.242 73.424,207.134 74.528,207.134L75.032,207.134L75.032,207.902Z" style="fill:white;fill-rule:nonzero;"/>
            <path d="M80.72,209.438C80.72,209.654 80.924,209.738 81.104,209.738C81.296,209.738 81.5,209.654 81.5,209.438L81.5,206.186C81.5,205.286 82.208,204.71 82.904,204.71C83.564,204.71 84.272,205.226 84.272,206.234L84.272,209.426C84.272,209.582 84.452,209.738 84.656,209.738C84.884,209.738 85.052,209.582 85.052,209.426L85.052,206.234C85.052,204.806 84.068,203.99 83.036,203.99C82.34,203.99 81.632,204.374 81.212,205.19C80.924,204.482 80.3,203.99 79.508,203.99C78.716,203.99 78.176,204.434 77.912,204.902L77.912,204.35C77.912,204.182 77.744,204.062 77.54,204.062C77.324,204.062 77.156,204.182 77.156,204.35L77.156,209.426C77.156,209.582 77.324,209.738 77.54,209.738C77.756,209.738 77.936,209.582 77.936,209.426L77.936,206.234C77.936,205.262 78.656,204.71 79.352,204.71C80.096,204.71 80.72,205.334 80.72,206.198L80.72,209.438Z" style="fill:white;fill-rule:nonzero;"/>
            <path d="M88.472,203.99C87.212,203.99 86.18,204.998 86.18,206.198L86.18,207.542C86.18,208.91 87.248,209.822 88.76,209.822C89.876,209.822 90.56,209.318 90.56,209.03C90.56,208.886 90.416,208.658 90.224,208.658C89.96,208.658 89.732,209.138 88.784,209.138C87.728,209.138 86.96,208.538 86.96,207.578L86.96,207.134L89.672,207.134C90.2,207.134 90.716,207.098 90.716,206.174C90.716,204.902 89.66,203.99 88.472,203.99ZM86.96,206.558L86.96,206.102C86.96,205.298 87.632,204.638 88.46,204.638C89.348,204.638 89.96,205.382 89.96,206.15C89.96,206.486 89.84,206.558 89.36,206.558L86.96,206.558Z" style="fill:white;fill-rule:nonzero;"/>
            <path d="M96.176,209.822C97.232,209.822 97.928,209.354 97.928,209.03C97.928,208.85 97.784,208.646 97.568,208.646C97.328,208.646 97.136,209.102 96.212,209.102C95.156,209.102 94.628,208.514 94.628,207.542L94.628,206.258C94.628,205.298 95.156,204.71 96.2,204.71C97.076,204.71 97.28,205.154 97.508,205.154C97.7,205.154 97.856,204.938 97.856,204.77C97.856,204.446 97.184,203.99 96.164,203.99C94.568,203.99 93.848,204.986 93.848,206.258L93.848,207.542C93.848,208.85 94.58,209.822 96.176,209.822Z" style="fill:white;fill-rule:nonzero;"/>
            <path d="M100.904,203.99C99.656,203.99 98.636,205.034 98.636,206.234L98.636,207.542C98.636,208.742 99.692,209.822 100.904,209.822C102.128,209.822 103.196,208.73 103.196,207.542L103.196,206.234C103.196,204.998 102.128,203.99 100.904,203.99ZM102.416,207.542C102.416,208.346 101.744,209.102 100.904,209.102C100.076,209.102 99.416,208.346 99.416,207.542L99.416,206.234C99.416,205.466 100.064,204.71 100.904,204.71C101.744,204.71 102.416,205.466 102.416,206.234L102.416,207.542Z" style="fill:white;fill-rule:nonzero;"/>
            <path d="M107.924,209.438C107.924,209.654 108.128,209.738 108.308,209.738C108.5,209.738 108.704,209.654 108.704,209.438L108.704,206.186C108.704,205.286 109.412,204.71 110.108,204.71C110.768,204.71 111.476,205.226 111.476,206.234L111.476,209.426C111.476,209.582 111.656,209.738 111.86,209.738C112.088,209.738 112.256,209.582 112.256,209.426L112.256,206.234C112.256,204.806 111.272,203.99 110.24,203.99C109.544,203.99 108.836,204.374 108.416,205.19C108.128,204.482 107.504,203.99 106.712,203.99C105.92,203.99 105.38,204.434 105.116,204.902L105.116,204.35C105.116,204.182 104.948,204.062 104.744,204.062C104.528,204.062 104.36,204.182 104.36,204.35L104.36,209.426C104.36,209.582 104.528,209.738 104.744,209.738C104.96,209.738 105.14,209.582 105.14,209.426L105.14,206.234C105.14,205.262 105.86,204.71 106.556,204.71C107.3,204.71 107.924,205.334 107.924,206.198L107.924,209.438Z" style="fill:white;fill-rule:nonzero;"/>
            <path d="M113.984,204.062C113.768,204.062 113.6,204.182 113.6,204.35L113.6,212.222C113.6,212.366 113.768,212.522 113.984,212.522C114.212,212.522 114.38,212.366 114.38,212.222L114.38,208.898C114.644,209.39 115.268,209.822 116,209.822C117.128,209.822 118.124,208.73 118.124,207.542L118.124,206.234C118.124,204.998 117.152,203.99 115.964,203.99C115.172,203.99 114.62,204.434 114.356,204.902L114.356,204.35C114.356,204.182 114.188,204.062 113.984,204.062ZM117.344,207.542C117.344,208.334 116.648,209.102 115.856,209.102C115.004,209.102 114.38,208.274 114.38,207.914L114.38,206.234C114.38,205.274 115.112,204.71 115.832,204.71C116.66,204.71 117.344,205.466 117.344,206.234L117.344,207.542Z" style="fill:white;fill-rule:nonzero;"/>
            <path d="M121.364,203.99C120.104,203.99 119.072,204.998 119.072,206.198L119.072,207.542C119.072,208.91 120.14,209.822 121.652,209.822C122.768,209.822 123.452,209.318 123.452,209.03C123.452,208.886 123.308,208.658 123.116,208.658C122.852,208.658 122.624,209.138 121.676,209.138C120.62,209.138 119.852,208.538 119.852,207.578L119.852,207.134L122.564,207.134C123.092,207.134 123.608,207.098 123.608,206.174C123.608,204.902 122.552,203.99 121.364,203.99ZM119.852,206.558L119.852,206.102C119.852,205.298 120.524,204.638 121.352,204.638C122.24,204.638 122.852,205.382 122.852,206.15C122.852,206.486 122.732,206.558 122.252,206.558L119.852,206.558Z" style="fill:white;fill-rule:nonzero;"/>
            <path d="M125.42,204.71L126.968,204.71C127.124,204.71 127.244,204.554 127.244,204.386C127.244,204.218 127.124,204.062 126.968,204.062L125.42,204.062L125.42,201.65C125.42,201.482 125.216,201.362 125.024,201.362C124.844,201.362 124.64,201.482 124.64,201.65L124.64,207.974C124.64,209.21 125.3,209.738 126.536,209.738L126.872,209.738C127.088,209.738 127.232,209.57 127.232,209.378C127.232,209.198 127.088,209.03 126.872,209.03L126.536,209.03C125.708,209.03 125.42,208.754 125.42,207.974L125.42,204.71Z" style="fill:white;fill-rule:nonzero;"/>
            <path d="M128.492,204.062C128.276,204.062 128.108,204.182 128.108,204.35L128.108,209.426C128.108,209.582 128.276,209.738 128.492,209.738C128.708,209.738 128.888,209.582 128.888,209.426L128.888,204.35C128.888,204.182 128.708,204.062 128.492,204.062ZM128.492,201.386C128.192,201.386 127.952,201.614 127.952,201.878C127.952,202.142 128.192,202.382 128.492,202.382C128.78,202.382 129.008,202.142 129.008,201.878C129.008,201.614 128.78,201.386 128.492,201.386Z" style="fill:white;fill-rule:nonzero;"/>
            <path d="M131.036,204.71L132.584,204.71C132.74,204.71 132.86,204.554 132.86,204.386C132.86,204.218 132.74,204.062 132.584,204.062L131.036,204.062L131.036,201.65C131.036,201.482 130.832,201.362 130.64,201.362C130.46,201.362 130.256,201.482 130.256,201.65L130.256,207.974C130.256,209.21 130.916,209.738 132.152,209.738L132.488,209.738C132.704,209.738 132.848,209.57 132.848,209.378C132.848,209.198 132.704,209.03 132.488,209.03L132.152,209.03C131.324,209.03 131.036,208.754 131.036,207.974L131.036,204.71Z" style="fill:white;fill-rule:nonzero;"/>
            <path d="M134.108,204.062C133.892,204.062 133.724,204.182 133.724,204.35L133.724,209.426C133.724,209.582 133.892,209.738 134.108,209.738C134.324,209.738 134.504,209.582 134.504,209.426L134.504,204.35C134.504,204.182 134.324,204.062 134.108,204.062ZM134.108,201.386C133.808,201.386 133.568,201.614 133.568,201.878C133.568,202.142 133.808,202.382 134.108,202.382C134.396,202.382 134.624,202.142 134.624,201.878C134.624,201.614 134.396,201.386 134.108,201.386Z" style="fill:white;fill-rule:nonzero;"/>
            <path d="M137.936,203.99C136.688,203.99 135.668,205.034 135.668,206.234L135.668,207.542C135.668,208.742 136.724,209.822 137.936,209.822C139.16,209.822 140.228,208.73 140.228,207.542L140.228,206.234C140.228,204.998 139.16,203.99 137.936,203.99ZM139.448,207.542C139.448,208.346 138.776,209.102 137.936,209.102C137.108,209.102 136.448,208.346 136.448,207.542L136.448,206.234C136.448,205.466 137.096,204.71 137.936,204.71C138.776,204.71 139.448,205.466 139.448,206.234L139.448,207.542Z" style="fill:white;fill-rule:nonzero;"/>
            <path d="M142.172,206.234C142.172,205.274 142.892,204.71 143.6,204.71C144.428,204.71 145.1,205.466 145.1,206.234L145.1,209.426C145.1,209.63 145.304,209.738 145.484,209.738C145.676,209.738 145.88,209.63 145.88,209.426L145.88,206.234C145.88,204.998 144.896,203.99 143.744,203.99C142.94,203.99 142.388,204.434 142.136,204.902L142.136,204.35C142.136,204.182 141.968,204.062 141.776,204.062C141.548,204.062 141.392,204.182 141.392,204.35L141.392,209.426C141.392,209.582 141.548,209.738 141.776,209.738C141.992,209.738 142.172,209.582 142.172,209.426L142.172,206.234Z" style="fill:white;fill-rule:nonzero;"/>
        </g>
        <g transform="matrix(1.47196,0,0,1.47196,-22.2483,-92.928)">
            <path d="M294.474,168.356L294.474,168.356C301.776,168.403 307.689,174.346 307.689,181.659C307.689,189.001 301.728,194.962 294.386,194.962C289.48,194.962 285.191,192.302 282.885,188.346L278.313,188.346C276.006,192.302 271.718,194.962 266.812,194.962C259.47,194.962 253.509,189.001 253.509,181.659C253.509,174.317 259.47,168.356 266.812,168.356L294.474,168.356Z" style="fill:rgb(104,187,2);stroke-width:2px;stroke:white;"/>
        </g>
        <g transform="matrix(1.82085,0,0,1.82085,-123.192,-153.005)">
            <circle cx="291.696" cy="180" r="1.659" style="fill:white;"/>
        </g>
        <g transform="matrix(1.73644,0,0,1.73644,-90.283,-137.652)">
            <circle cx="291.696" cy="180" r="1.659" style="fill:white;"/>
        </g>
        <g transform="matrix(1.47196,0,0,1.47196,-63.2875,-91.6568)">
            <path d="M289.628,180.281C289.628,179.683 290.113,179.198 290.711,179.198C291.673,179.198 292.927,179.198 292.927,179.198C292.927,179.198 292.927,177.943 292.927,176.981C292.927,176.383 293.412,175.898 294.01,175.898C294.342,175.898 294.707,175.898 295.039,175.898C295.638,175.898 296.123,176.383 296.123,176.981C296.123,177.943 296.123,179.198 296.123,179.198C296.123,179.198 297.377,179.198 298.339,179.198C298.937,179.198 299.422,179.683 299.422,180.281C299.422,180.613 299.422,180.978 299.422,181.31C299.422,181.908 298.937,182.393 298.339,182.393C297.377,182.393 296.123,182.393 296.123,182.393C296.123,182.393 296.123,183.648 296.123,184.609C296.123,185.208 295.638,185.693 295.039,185.693C294.707,185.693 294.342,185.693 294.01,185.693C293.412,185.693 292.927,185.208 292.927,184.609C292.927,183.648 292.927,182.393 292.927,182.393C292.927,182.393 291.673,182.393 290.711,182.393C290.113,182.393 289.628,181.908 289.628,181.31C289.628,180.978 289.628,180.613 289.628,180.281Z" style="fill:white;"/>
        </g>
        <g transform="matrix(1.47196,0,0,1.47196,-20.7665,-95.8539)">
            <path d="M276.335,183.837L277.838,183.837" style="fill:none;stroke-width:2px;stroke-linecap:round;stroke:white;"/>
        </g>
        <g transform="matrix(1.47196,0,0,1.47196,-13.3895,-95.8539)">
            <path d="M276.335,183.837L277.838,183.837" style="fill:none;stroke-width:2px;stroke-linecap:round;stroke:white;"/>
        </g>
        <g transform="matrix(0.153874,0,0,0.153874,347.606,128.98)">
            <path d="M280.599,168.356L280.599,0" style="fill:none;stroke-width:19.13px;stroke-linecap:round;stroke:white;"/>
        </g>
    </g>
</svg>
