<?xml version="1.0" standalone="no"?>
<!DOCTYPE svg PUBLIC "-//W3C//DTD SVG 1.1//EN" "http://www.w3.org/Graphics/SVG/1.1/DTD/svg11.dtd">
<svg width="100%" height="100%" viewBox="0 0 2000 2000" version="1.1" xmlns="http://www.w3.org/2000/svg" xmlns:xlink="http://www.w3.org/1999/xlink" xml:space="preserve" style="fill-rule:evenodd;clip-rule:evenodd;stroke-linecap:round;stroke-linejoin:round;stroke-miterlimit:1.41421;">
    <path d="M2000,1000C2000,447.715 1552.29,0 1000,0C1000,0 1000,0 1000,0C447.715,0 0,447.715 0,1000C0,1000 0,1000 0,1000C0,1552.29 447.715,2000 1000,2000C1000,2000 1000,2000 1000,2000C1552.29,2000 2000,1552.29 2000,1000C2000,1000 2000,1000 2000,1000Z" style="fill:rgb(104,187,2);"/>
    <g transform="matrix(1,0,0,1,335.112,-21.2793)">
        <path d="M1174.84,374.438L1195.7,374.438" style="fill:none;stroke-width:15px;stroke:white;"/>
    </g>
    <circle cx="1000" cy="1000" r="856.008" style="fill:none;stroke-width:15px;stroke:white;"/>
    <path d="M1309.91,851.8C1345.92,908.544 1366.79,975.834 1366.79,1047.96C1366.79,1250.39 1202.43,1414.74 1000,1414.74C797.565,1414.74 633.213,1250.39 633.213,1047.96C633.213,975.834 654.075,908.544 690.09,851.8L633.213,681.171L803.842,738.047C860.587,702.033 927.876,681.171 1000,681.171C1072.12,681.171 1139.41,702.033 1196.16,738.047L1366.79,681.171L1309.91,851.8Z" style="fill:none;stroke-width:15px;stroke:white;"/>
    <g transform="matrix(-1.41422,4.54849e-16,-2.26879e-16,-0.705415,2483.76,1851.16)">
        <path d="M1043.14,1090.16C1046.47,1083.49 1051.86,1083.49 1055.19,1090.16C1062.25,1104.27 1074.19,1128.15 1083.72,1147.21C1086.17,1152.11 1086.9,1159.47 1085.58,1165.87C1084.26,1172.26 1081.15,1176.44 1077.7,1176.44C1060.93,1176.44 1037.4,1176.44 1020.64,1176.44C1017.18,1176.44 1014.07,1172.26 1012.75,1165.87C1011.43,1159.47 1012.17,1152.11 1014.61,1147.21C1024.14,1128.15 1036.08,1104.27 1043.14,1090.16Z" style="fill:white;stroke-width:13.42px;stroke:white;"/>
    </g>
    <g transform="matrix(-3.38029,1.08718e-15,-4.46162e-16,-1.38721,4546.49,2797.82)">
        <path d="M1049.17,1078.1C1073.91,1080.71 1094.06,1114.18 1097.74,1161.99C1098.02,1165.54 1097.63,1169.22 1096.69,1172.01C1095.74,1174.8 1094.34,1176.42 1092.85,1176.42C1075.61,1176.44 1022.61,1176.44 1005.43,1176.44C1003.96,1176.44 1002.56,1174.84 1001.61,1172.08C1000.66,1169.31 1000.27,1165.67 1000.53,1162.13C1003.98,1114.19 1023.71,1079.21 1049.17,1078.1Z" style="fill:white;stroke-width:5.81px;stroke:white;"/>
    </g>
    <g transform="matrix(1,0,0,1,0,-45.7327)">
        <path d="M833.802,1067.02L833.802,943.394" style="fill:none;stroke-width:15px;stroke:white;"/>
    </g>
    <g transform="matrix(1,0,0,1,332.396,-45.7327)">
        <path d="M833.802,1067.02L833.802,943.394" style="fill:none;stroke-width:15px;stroke:white;"/>
    </g>
    <path d="M1264.75,1021.29L1457.51,959.474" style="fill:none;stroke-width:15px;stroke:white;"/>
    <g transform="matrix(0.941516,0.336969,-0.336969,0.941516,418.109,-321.864)">
        <path d="M1264.75,1021.29L1457.51,959.474" style="fill:none;stroke-width:15px;stroke:white;"/>
    </g>
    <g transform="matrix(0.772904,0.634523,-0.634523,0.772904,935.248,-483.5)">
        <path d="M1264.75,1021.29L1457.51,959.474" style="fill:none;stroke-width:15px;stroke:white;"/>
    </g>
    <g transform="matrix(-1,0,0,1,2004.9,0)">
        <path d="M1264.75,1021.29L1457.51,959.474" style="fill:none;stroke-width:15px;stroke:white;"/>
    </g>
    <g transform="matrix(-0.941516,0.336969,0.336969,0.941516,1586.79,-321.864)">
        <path d="M1264.75,1021.29L1457.51,959.474" style="fill:none;stroke-width:15px;stroke:white;"/>
    </g>
    <g transform="matrix(-0.772904,0.634523,0.634523,0.772904,1069.65,-483.5)">
        <path d="M1264.75,1021.29L1457.51,959.474" style="fill:none;stroke-width:15px;stroke:white;"/>
    </g>
    <path d="M1464.75,1718.81C1330.88,1805.6 1171.28,1856.01 1000,1856.01C868.776,1856.01 744.409,1826.42 633.213,1773.55L633.213,1718.81C633.213,1718.81 684.394,1718.81 717.504,1718.81C732.71,1718.81 745.036,1731.14 745.036,1746.34C745.036,1746.34 745.036,1746.34 745.036,1746.34C745.036,1761.55 757.363,1773.88 772.568,1773.88C823.4,1773.88 931.42,1773.88 982.252,1773.88C997.457,1773.88 1009.78,1761.55 1009.78,1746.34C1009.78,1746.34 1009.78,1746.34 1009.78,1746.34C1009.78,1731.14 1022.11,1718.81 1037.32,1718.81L1464.75,1718.81ZM1037.95,1715.36C1030.48,1715.36 1023.32,1718.32 1018.03,1723.61C1012.75,1728.89 1009.78,1736.05 1009.78,1743.52C1009.78,1743.52 1009.78,1743.52 1009.78,1743.52C1009.78,1750.99 1006.82,1758.16 1001.53,1763.44C996.252,1768.72 989.088,1771.69 981.618,1771.69C930.739,1771.69 824.08,1771.69 773.202,1771.69C765.732,1771.69 758.568,1768.72 753.286,1763.44C748.004,1758.16 745.036,1750.99 745.036,1743.52C745.036,1743.52 745.036,1743.52 745.036,1743.52C745.036,1736.05 742.069,1728.89 736.787,1723.61C731.505,1718.32 724.341,1715.36 716.87,1715.36C683.745,1715.36 633.213,1715.36 633.213,1715.36L633.213,1480.89C633.213,1480.89 678.717,1480.89 711.67,1480.89C730.098,1480.89 745.036,1492.83 745.036,1511.25C745.036,1511.25 745.036,1511.25 745.036,1511.26C745.036,1529.68 759.975,1544.62 778.402,1544.62C829.249,1544.62 925.571,1544.62 976.418,1544.62C994.845,1544.62 1009.78,1529.68 1009.78,1511.26C1009.78,1511.25 1009.78,1511.25 1009.78,1511.25C1009.78,1492.83 1024.72,1480.89 1043.15,1480.89C1130.25,1480.89 1709.79,1480.89 1709.79,1480.89C1639.85,1588.64 1557.99,1664.22 1467.06,1715.36L1037.95,1715.36ZM173.668,775.93L293.889,775.93C312.316,775.93 327.255,760.992 327.255,742.564C327.255,742.563 327.255,742.563 327.255,742.562C327.255,724.134 342.193,709.196 360.621,709.196L439.078,709.196L439.078,943.665C439.078,943.665 388.547,943.665 355.421,943.665C347.951,943.665 340.787,946.632 335.504,951.914C330.222,957.196 327.255,964.361 327.255,971.831C327.255,971.832 327.255,971.833 327.255,971.834C327.255,979.304 324.287,986.468 319.005,991.75C313.723,997.033 306.559,1000 299.089,1000L143.992,1000C143.992,922.483 154.318,847.36 173.668,775.93ZM1292.91,458.162C1285.44,458.162 1278.28,461.13 1273,466.412C1267.71,471.694 1264.75,478.858 1264.75,486.328C1264.75,486.329 1264.75,486.33 1264.75,486.332C1264.75,493.802 1261.78,500.966 1256.5,506.248C1251.21,511.53 1244.05,514.498 1236.58,514.498C1185.7,514.498 1079.04,514.498 1028.17,514.498C1020.7,514.498 1013.53,511.53 1008.25,506.248C1002.97,500.966 1000,493.802 1000,486.332C1000,486.33 1000,486.329 1000,486.328C1000,478.858 997.033,471.694 991.75,466.412C986.468,461.13 979.304,458.162 971.834,458.162C938.708,458.162 888.177,458.162 888.177,458.162L888.177,223.693C888.177,223.693 933.681,223.693 966.634,223.693C985.062,223.693 1000,238.632 1000,257.059C1000,257.06 1000,257.061 1000,257.062C1000,275.489 1014.94,290.428 1033.37,290.428C1084.21,290.428 1180.54,290.428 1231.38,290.428C1249.81,290.428 1264.75,275.489 1264.75,257.062C1264.75,257.061 1264.75,257.06 1264.75,257.059C1264.75,238.632 1279.69,223.693 1298.11,223.693L1360.93,223.693C1478.35,278.432 1581.33,359.037 1662.52,458.162L1292.91,458.162Z" style="fill:none;stroke-width:15px;stroke:white;"/>
    <g transform="matrix(1,0,0,1,-49.4387,7.14353)">
        <path d="M1120.85,1598.14L1434.55,1598.14" style="fill:none;stroke-width:15px;stroke:white;"/>
    </g>
    <g transform="matrix(1,0,0,1,-57.2693,-0.858872)">
        <path d="M1506.66,1606.14L1599.8,1606.14" style="fill:none;stroke-width:15px;stroke:white;"/>
    </g>
    <g transform="matrix(1,0,0,1,335.112,-21.2793)">
        <path d="M1000,374.438L1128.68,374.438" style="fill:none;stroke-width:15px;stroke:white;"/>
    </g>
</svg>
