<?xml version="1.0" standalone="no"?>
<!DOCTYPE svg PUBLIC "-//W3C//DTD SVG 1.1//EN" "http://www.w3.org/Graphics/SVG/1.1/DTD/svg11.dtd">
<svg width="100%" height="100%" viewBox="0 0 2000 2000" version="1.1" xmlns="http://www.w3.org/2000/svg" xmlns:xlink="http://www.w3.org/1999/xlink" xml:space="preserve" style="fill-rule:evenodd;clip-rule:evenodd;stroke-linecap:round;stroke-linejoin:round;stroke-miterlimit:1.41421;">
    <path d="M2000,1000C2000,447.715 1552.29,0 1000,0C1000,0 1000,0 1000,0C447.715,0 0,447.715 0,1000C0,1000 0,1000 0,1000C0,1552.29 447.715,2000 1000,2000C1000,2000 1000,2000 1000,2000C1552.29,2000 2000,1552.29 2000,1000C2000,1000 2000,1000 2000,1000Z" style="fill:rgb(104,187,2);"/>
    <circle cx="1000" cy="1000" r="856.008" style="fill:none;stroke-width:20px;stroke:white;"/>
    <g transform="matrix(0.418755,0,0,0.418755,581.245,581.245)">
        <circle cx="1000" cy="1000" r="856.008" style="fill:none;stroke-width:47.76px;stroke:white;"/>
    </g>
    <g transform="matrix(0.490677,0,0,0.490677,509.323,509.323)">
        <circle cx="1000" cy="1000" r="856.008" style="fill:none;stroke-width:40.76px;stroke:white;"/>
    </g>
    <g transform="matrix(0.787257,0,0,0.787257,222.295,212.743)">
        <path d="M912.434,912.434L1000,1000L1169.84,830.162" style="fill:none;stroke-width:25.4px;stroke:white;"/>
    </g>
    <g transform="matrix(1.07781,0,0,1.06161,-77.8088,-61.5911)">
        <path d="M1000,662.328L1000,729.969" style="fill:none;stroke-width:18.7px;stroke:white;"/>
    </g>
    <g transform="matrix(0.762126,0.762126,-0.750671,0.750671,988.334,-512.867)">
        <path d="M1000,662.328L1000,729.969" style="fill:none;stroke-width:18.7px;stroke:white;"/>
    </g>
    <g transform="matrix(4.78643e-16,1.07781,-1.06161,5.38474e-16,2061.31,-78.09)">
        <path d="M1000,662.328L1000,729.969" style="fill:none;stroke-width:18.7px;stroke:white;"/>
    </g>
    <g transform="matrix(-0.762126,0.762126,-0.750671,-0.750671,2512.59,988.052)">
        <path d="M1000,662.328L1000,729.969" style="fill:none;stroke-width:18.7px;stroke:white;"/>
    </g>
    <g transform="matrix(1.07781,0,0,1.06161,-77.8088,-61.5911)">
        <path d="M1000,1271.41L1000,1337.11" style="fill:none;stroke-width:18.7px;stroke:white;"/>
    </g>
    <g transform="matrix(0.762126,0.762126,-0.750671,0.750671,988.334,-512.867)">
        <path d="M1000,1271.41L1000,1337.11" style="fill:none;stroke-width:18.7px;stroke:white;"/>
    </g>
    <g transform="matrix(4.78643e-16,1.07781,-1.06161,5.38474e-16,2061.31,-78.09)">
        <path d="M1000,1271.41L1000,1337.11" style="fill:none;stroke-width:18.7px;stroke:white;"/>
    </g>
    <g transform="matrix(-0.762126,0.762126,-0.750671,-0.750671,2512.59,988.052)">
        <path d="M1000,1271.41L1000,1337.11" style="fill:none;stroke-width:18.7px;stroke:white;"/>
    </g>
    <path d="M423.589,1629.7L1000,1629.7L1000,1558.54" style="fill:none;stroke-width:20px;stroke:white;"/>
    <g transform="matrix(5.94477,0,0,5.94477,-4432.24,-8652.01)">
        <text x="910.342px" y="1750.49px" style="font-family:'Dosis-ExtraBold';font-size:16px;fill:white;">7</text>
    </g>
    <g transform="matrix(5.94477,0,0,5.94477,-4772.1,-8652.01)">
        <text x="910.342px" y="1750.49px" style="font-family:'Dosis-ExtraBold';font-size:16px;fill:white;">6</text>
    </g>
    <path d="M666.047,1629.7L666.047,1594.12" style="fill:none;stroke-width:20px;stroke:white;"/>
    <g transform="matrix(1.08044,0,0,1.05823,-77.2608,-29.5877)">
        <path d="M1133.19,537.993L1077.77,537.993L1077.77,583.376C1052.56,578.69 1026.56,576.241 1000,576.241C973.437,576.241 947.442,578.69 922.228,583.376L922.228,502.121L1133.19,502.121L1133.19,537.993Z" style="fill:none;stroke-width:18.7px;stroke:white;"/>
    </g>
    <path d="M1033.12,1629.7L1573.64,1629.7" style="fill:none;stroke-width:20px;stroke:white;"/>
    <g transform="matrix(1,0,0,1,0.682548,0)">
        <g transform="matrix(0.576386,0,0,0.847838,561.798,398.369)">
            <path d="M1318.44,1520.45L1384.23,1586.24" style="fill:none;stroke-width:23.91px;stroke:white;"/>
        </g>
        <g transform="matrix(1.75977e-16,0.847838,-0.576386,2.58854e-16,2236.01,569.643)">
            <path d="M1318.44,1520.45L1384.23,1586.24" style="fill:none;stroke-width:23.91px;stroke:white;"/>
        </g>
    </g>
    <path d="M412.383,377.819C565.749,232.873 772.577,143.992 1000,143.992C1054.77,143.992 1108.34,149.146 1160.26,159.062C1156.69,162.344 1153.54,166 1150.8,169.965C1147.74,174.39 1145.24,179.169 1143.33,184.196C1140.47,191.732 1139,199.776 1139,207.836C1139,215.896 1140.47,223.941 1143.33,231.477C1146.19,239.013 1150.42,246.012 1155.76,252.044C1159.33,256.069 1163.37,259.648 1167.79,262.702C1170.99,264.911 1174.38,266.836 1177.92,268.453L1064.57,268.453C1061.89,268.615 1059.2,268.615 1056.54,268.939C1048.54,269.91 1040.73,272.343 1033.59,276.089C1026.45,279.835 1020.02,284.878 1014.67,290.911C1009.33,296.944 1005.1,303.943 1002.24,311.479C1000.33,316.506 999.04,321.746 998.391,327.084C997.743,332.421 997.743,337.818 998.391,343.155C999.04,348.493 1000.33,353.732 1002.24,358.76C1005.1,366.296 1009.33,373.295 1014.67,379.328C1020.02,385.36 1026.45,390.404 1033.59,394.15C1038.35,396.648 1043.4,398.562 1048.62,399.849C1055.59,401.567 1057.45,401.355 1064.57,401.786L1611.96,401.786C1660.52,451.423 1703.09,506.942 1738.48,567.21L1530.84,567.21C1523.71,567.641 1521.85,567.429 1514.88,569.147C1507.06,571.076 1499.6,574.432 1492.96,579.011C1488.54,582.065 1484.5,585.644 1480.93,589.668C1475.59,595.701 1471.36,602.7 1468.5,610.236C1466.6,615.264 1465.3,620.503 1464.65,625.841C1464.01,631.178 1464.01,636.575 1464.65,641.912C1465.3,647.25 1466.6,652.489 1468.5,657.517C1471.36,665.053 1475.59,672.052 1480.93,678.085C1486.28,684.118 1492.72,689.161 1499.85,692.907C1506.99,696.653 1514.8,699.086 1522.8,700.057C1525.46,700.381 1528.16,700.381 1530.84,700.543L1802.03,700.543C1836.94,793.742 1856.01,894.662 1856.01,1000C1856.01,1472.44 1472.44,1856.01 1000,1856.01C527.556,1856.01 143.992,1472.44 143.992,1000C143.992,818.306 200.723,649.758 297.469,511.152L525.537,511.152C532.679,510.723 534.553,510.925 541.491,509.215C546.712,507.928 551.757,506.015 556.518,503.516C561.279,501.017 565.72,497.952 569.745,494.386C575.778,489.042 580.822,482.604 584.567,475.467C587.066,470.706 588.979,465.661 590.266,460.44C592.195,452.614 592.689,444.451 591.717,436.45C591.069,431.112 589.778,425.873 587.871,420.845C585.965,415.818 583.457,411.04 580.402,406.615C575.824,399.982 570.041,394.199 563.408,389.62C556.775,385.041 549.317,381.685 541.491,379.756C538.886,379.114 536.212,378.789 533.573,378.305C530.894,378.143 528.215,377.981 525.537,377.819L412.383,377.819Z" style="fill:none;stroke-width:20px;stroke:white;"/>
    <path d="M608.975,674.397L611.251,674.358C613.526,674.28 615.798,674.086 618.053,673.776C624.82,672.845 631.438,670.869 637.607,667.935C641.719,665.979 645.629,663.601 649.257,660.85C652.281,658.558 655.108,656.006 657.697,653.233C660.805,649.906 663.571,646.259 665.936,642.369C667.908,639.127 669.602,635.717 670.994,632.187C673.5,625.832 675.02,619.095 675.486,612.279C675.901,606.222 675.483,600.111 674.247,594.166C673.321,589.708 671.937,585.346 670.122,581.17C668.006,576.297 665.305,571.68 662.095,567.447C659.344,563.819 656.22,560.475 652.789,557.482C649.357,554.49 645.618,551.851 641.649,549.619C635.032,545.899 627.783,543.322 620.302,542.033C618.059,541.646 615.796,541.374 613.525,541.219C612.768,541.167 612.009,541.141 611.251,541.102C610.492,541.089 609.734,541.076 608.975,541.063L414.217,541.063C413.458,541.076 412.699,541.076 411.941,541.102C409.665,541.18 407.394,541.374 405.139,541.684C397.619,542.718 390.286,545.045 383.546,548.538C377.48,551.68 371.907,555.759 367.076,560.589C363.32,564.346 360.016,568.552 357.255,573.091C354.89,576.981 352.924,581.114 351.399,585.405C349.62,590.41 348.443,595.628 347.9,600.912C347.434,605.442 347.434,610.018 347.9,614.547C348.52,620.587 349.971,626.538 352.198,632.187C353.59,635.717 355.284,639.127 357.255,642.369C359.621,646.259 362.386,649.906 365.494,653.233C368.602,656.561 372.051,659.569 375.771,662.195C378.871,664.383 382.158,666.305 385.584,667.935C391.754,670.869 398.371,672.845 405.139,673.776C407.394,674.086 409.665,674.28 411.941,674.358C412.699,674.384 413.458,674.384 414.217,674.397L608.975,674.397Z" style="fill:none;stroke-width:20px;stroke:white;"/>
    <path d="M1738.48,567.21C1763.34,609.465 1784.66,654.039 1802.03,700.543L1530.84,700.543C1528.16,700.381 1525.46,700.381 1522.8,700.057C1514.8,699.086 1506.99,696.653 1499.85,692.907C1492.72,689.161 1486.28,684.118 1480.93,678.085C1475.59,672.052 1471.36,665.053 1468.5,657.517C1466.6,652.489 1465.3,647.25 1464.65,641.912C1464.01,636.575 1464.01,631.178 1464.65,625.841C1465.3,620.503 1466.6,615.264 1468.5,610.236C1471.36,602.7 1475.59,595.701 1480.93,589.668C1484.5,585.644 1488.54,582.065 1492.96,579.011C1499.6,574.432 1507.06,571.076 1514.88,569.147C1521.85,567.429 1523.71,567.641 1530.84,567.21L1738.48,567.21Z" style="fill:none;stroke-width:20px;stroke:white;"/>
    <path d="M608.975,674.397L414.217,674.397C413.458,674.384 412.699,674.384 411.941,674.358C409.665,674.28 407.394,674.086 405.139,673.776C398.371,672.845 391.754,670.869 385.584,667.935C382.158,666.305 378.871,664.383 375.771,662.195C372.051,659.569 368.602,656.561 365.494,653.233C362.386,649.906 359.621,646.259 357.255,642.369C355.284,639.127 353.59,635.717 352.198,632.187C349.971,626.538 348.52,620.587 347.9,614.547C347.434,610.018 347.434,605.442 347.9,600.912C348.443,595.628 349.62,590.41 351.399,585.405C352.924,581.114 354.89,576.981 357.255,573.091C360.016,568.552 363.32,564.346 367.076,560.589C371.907,555.759 377.48,551.68 383.546,548.538C390.286,545.045 397.619,542.718 405.139,541.684C407.394,541.374 409.665,541.18 411.941,541.102C412.699,541.076 413.458,541.076 414.217,541.063L608.975,541.063C609.734,541.076 610.492,541.089 611.251,541.102C612.009,541.141 612.768,541.167 613.525,541.219C615.796,541.374 618.059,541.646 620.302,542.033C627.783,543.322 635.032,545.899 641.649,549.619C645.618,551.851 649.357,554.49 652.789,557.482C656.22,560.475 659.344,563.819 662.095,567.447C665.305,571.68 668.006,576.297 670.122,581.17C671.937,585.346 673.321,589.708 674.247,594.166C675.483,600.111 675.901,606.222 675.486,612.279C675.02,619.095 673.5,625.832 670.994,632.187C669.602,635.717 667.908,639.127 665.936,642.369C663.571,646.259 660.805,649.906 657.697,653.233C655.108,656.006 652.281,658.558 649.257,660.85C645.629,663.601 641.719,665.979 637.607,667.935C631.438,670.869 624.82,672.845 618.053,673.776C615.798,674.086 613.526,674.28 611.251,674.358L608.975,674.397Z" style="fill:none;stroke-width:20px;stroke:white;"/>
    <path d="M412.383,377.819L525.537,377.819C528.215,377.981 530.894,378.143 533.573,378.305C536.212,378.789 538.886,379.114 541.491,379.756C549.317,381.685 556.775,385.041 563.408,389.62C570.041,394.199 575.824,399.982 580.402,406.615C583.457,411.04 585.965,415.818 587.871,420.845C589.778,425.873 591.069,431.112 591.717,436.45C592.689,444.451 592.195,452.614 590.266,460.44C588.979,465.661 587.066,470.706 584.567,475.467C580.822,482.604 575.778,489.042 569.745,494.386C565.72,497.952 561.279,501.017 556.518,503.516C551.757,506.015 546.712,507.928 541.491,509.215C534.553,510.925 532.679,510.723 525.537,511.152L297.469,511.152C331.149,462.842 369.683,418.163 412.383,377.819Z" style="fill:none;stroke-width:20px;stroke:white;"/>
    <path d="M1160.26,159.062C1335.58,192.294 1492.05,279.077 1611.96,401.786L1064.57,401.786C1057.45,401.355 1055.59,401.567 1048.62,399.849C1043.4,398.562 1038.35,396.648 1033.59,394.15C1026.45,390.404 1020.02,385.36 1014.67,379.328C1009.33,373.295 1005.1,366.296 1002.24,358.76C1000.33,353.732 999.04,348.493 998.391,343.155C997.743,337.818 997.743,332.421 998.391,327.084C999.04,321.746 1000.33,316.506 1002.24,311.479C1005.1,303.943 1009.33,296.944 1014.67,290.911C1020.02,284.878 1026.45,279.835 1033.59,276.089C1040.73,272.343 1048.54,269.91 1056.54,268.939C1059.2,268.615 1061.89,268.615 1064.57,268.453L1177.92,268.453C1174.38,266.836 1170.99,264.911 1167.79,262.702C1163.37,259.648 1159.33,256.069 1155.76,252.044C1150.42,246.012 1146.19,239.013 1143.33,231.477C1140.47,223.941 1139,215.896 1139,207.836C1139,199.776 1140.47,191.732 1143.33,184.196C1145.24,179.169 1147.74,174.39 1150.8,169.965C1153.54,166 1156.69,162.344 1160.26,159.062Z" style="fill:none;stroke-width:20px;stroke:white;"/>
</svg>
